<?xml version="1.0" encoding="UTF-8"?>
<!-- The Spiral Method - full mark, ivory
     Golden logarithmic spiral:  r = e^(b*theta),  b = ln(phi)/(pi/2) = 0.3063490
     Radius multiplies by phi (1.6180340) every quarter turn.
     2.5 turns, clockwise, expanding outward. Uniform stroke, round caps.
     Recolour by changing the stroke value. Do not add fill. --><svg xmlns="http://www.w3.org/2000/svg" viewBox="0 0 512 512" width="512" height="512" role="img" aria-label="The Spiral Method mark">
  <path d="M363.62 186.14 L363.63 186.19 L363.65 186.24 L363.66 186.29 L363.67 186.34 L363.68 186.39 L363.69 186.45 L363.70 186.50 L363.71 186.55 L363.72 186.60 L363.73 186.66 L363.73 186.71 L363.74 186.77 L363.74 186.82 L363.75 186.88 L363.75 186.94 L363.75 186.99 L363.75 187.05 L363.75 187.10 L363.75 187.16 L363.75 187.22 L363.74 187.28 L363.74 187.34 L363.73 187.39 L363.73 187.45 L363.72 187.51 L363.71 187.57 L363.70 187.63 L363.69 187.69 L363.68 187.75 L363.66 187.81 L363.65 187.86 L363.64 187.92 L363.62 187.98 L363.60 188.04 L363.58 188.10 L363.56 188.16 L363.54 188.22 L363.52 188.28 L363.50 188.34 L363.47 188.40 L363.45 188.46 L363.42 188.52 L363.39 188.58 L363.36 188.63 L363.33 188.69 L363.30 188.75 L363.27 188.81 L363.23 188.87 L363.20 188.92 L363.16 188.98 L363.12 189.04 L363.09 189.09 L363.05 189.15 L363.01 189.21 L362.96 189.26 L362.92 189.31 L362.88 189.37 L362.83 189.42 L362.78 189.48 L362.73 189.53 L362.69 189.58 L362.63 189.63 L362.58 189.68 L362.53 189.73 L362.48 189.78 L362.42 189.83 L362.36 189.88 L362.31 189.93 L362.25 189.97 L362.19 190.02 L362.13 190.06 L362.07 190.11 L362.00 190.15 L361.94 190.19 L361.87 190.23 L361.81 190.28 L361.74 190.32 L361.67 190.35 L361.60 190.39 L361.53 190.43 L361.46 190.46 L361.39 190.50 L361.32 190.53 L361.24 190.56 L361.17 190.60 L361.09 190.63 L361.01 190.65 L360.94 190.68 L360.86 190.71 L360.78 190.73 L360.70 190.76 L360.62 190.78 L360.53 190.80 L360.45 190.82 L360.37 190.84 L360.28 190.86 L360.20 190.87 L360.11 190.89 L360.02 190.90 L359.94 190.91 L359.85 190.92 L359.76 190.93 L359.67 190.94 L359.58 190.94 L359.49 190.95 L359.40 190.95 L359.31 190.95 L359.21 190.95 L359.12 190.95 L359.03 190.94 L358.93 190.94 L358.84 190.93 L358.75 190.92 L358.65 190.91 L358.56 190.90 L358.46 190.88 L358.37 190.87 L358.27 190.85 L358.18 190.83 L358.08 190.81 L357.98 190.79 L357.89 190.76 L357.79 190.74 L357.70 190.71 L357.60 190.68 L357.50 190.65 L357.41 190.61 L357.31 190.58 L357.22 190.54 L357.12 190.50 L357.02 190.46 L356.93 190.41 L356.83 190.37 L356.74 190.32 L356.64 190.27 L356.55 190.22 L356.46 190.17 L356.36 190.11 L356.27 190.06 L356.18 190.00 L356.09 189.94 L356.00 189.87 L355.91 189.81 L355.82 189.74 L355.73 189.68 L355.64 189.61 L355.55 189.53 L355.46 189.46 L355.38 189.38 L355.29 189.31 L355.21 189.23 L355.13 189.14 L355.04 189.06 L354.96 188.97 L354.88 188.89 L354.80 188.80 L354.73 188.71 L354.65 188.61 L354.57 188.52 L354.50 188.42 L354.43 188.33 L354.36 188.23 L354.29 188.12 L354.22 188.02 L354.15 187.91 L354.08 187.81 L354.02 187.70 L353.96 187.59 L353.90 187.48 L353.84 187.36 L353.78 187.25 L353.72 187.13 L353.67 187.01 L353.62 186.89 L353.57 186.77 L353.52 186.65 L353.47 186.52 L353.43 186.40 L353.38 186.27 L353.34 186.14 L353.30 186.01 L353.27 185.88 L353.23 185.74 L353.20 185.61 L353.17 185.47 L353.14 185.34 L353.12 185.20 L353.09 185.06 L353.07 184.92 L353.05 184.78 L353.04 184.63 L353.02 184.49 L353.01 184.35 L353.00 184.20 L353.00 184.05 L352.99 183.91 L352.99 183.76 L352.99 183.61 L353.00 183.46 L353.00 183.31 L353.01 183.16 L353.02 183.01 L353.04 182.85 L353.06 182.70 L353.08 182.55 L353.10 182.39 L353.12 182.24 L353.15 182.08 L353.18 181.93 L353.22 181.77 L353.26 181.62 L353.30 181.46 L353.34 181.31 L353.38 181.15 L353.43 181.00 L353.49 180.84 L353.54 180.69 L353.60 180.53 L353.66 180.37 L353.72 180.22 L353.79 180.07 L353.86 179.91 L353.93 179.76 L354.01 179.60 L354.09 179.45 L354.17 179.30 L354.26 179.15 L354.35 179.00 L354.44 178.85 L354.53 178.70 L354.63 178.55 L354.73 178.40 L354.84 178.26 L354.94 178.11 L355.05 177.97 L355.17 177.82 L355.29 177.68 L355.41 177.54 L355.53 177.40 L355.65 177.26 L355.78 177.13 L355.91 176.99 L356.05 176.86 L356.19 176.73 L356.33 176.60 L356.47 176.47 L356.62 176.35 L356.77 176.22 L356.92 176.10 L357.08 175.98 L357.24 175.86 L357.40 175.75 L357.57 175.63 L357.73 175.52 L357.90 175.41 L358.08 175.31 L358.25 175.20 L358.43 175.10 L358.61 175.00 L358.80 174.91 L358.98 174.82 L359.17 174.72 L359.37 174.64 L359.56 174.55 L359.76 174.47 L359.96 174.39 L360.16 174.32 L360.36 174.24 L360.57 174.17 L360.78 174.11 L360.99 174.05 L361.20 173.99 L361.42 173.93 L361.63 173.88 L361.85 173.83 L362.08 173.78 L362.30 173.74 L362.52 173.71 L362.75 173.67 L362.98 173.64 L363.21 173.61 L363.44 173.59 L363.68 173.57 L363.91 173.56 L364.15 173.55 L364.39 173.54 L364.63 173.54 L364.87 173.54 L365.11 173.55 L365.36 173.56 L365.60 173.57 L365.85 173.59 L366.09 173.62 L366.34 173.64 L366.59 173.68 L366.84 173.71 L367.09 173.76 L367.34 173.80 L367.59 173.85 L367.84 173.91 L368.09 173.97 L368.34 174.03 L368.59 174.10 L368.85 174.18 L369.10 174.26 L369.35 174.34 L369.60 174.43 L369.85 174.52 L370.10 174.62 L370.35 174.73 L370.60 174.83 L370.85 174.95 L371.10 175.07 L371.35 175.19 L371.60 175.32 L371.84 175.45 L372.09 175.59 L372.33 175.73 L372.58 175.88 L372.82 176.04 L373.06 176.19 L373.30 176.36 L373.53 176.53 L373.77 176.70 L374.00 176.88 L374.23 177.06 L374.46 177.25 L374.69 177.45 L374.91 177.64 L375.14 177.85 L375.36 178.06 L375.57 178.27 L375.79 178.49 L376.00 178.71 L376.21 178.94 L376.42 179.18 L376.62 179.41 L376.82 179.66 L377.02 179.90 L377.21 180.16 L377.40 180.41 L377.59 180.68 L377.77 180.94 L377.95 181.21 L378.13 181.49 L378.30 181.77 L378.47 182.05 L378.63 182.34 L378.79 182.64 L378.95 182.93 L379.10 183.24 L379.25 183.54 L379.39 183.85 L379.52 184.17 L379.66 184.49 L379.78 184.81 L379.91 185.14 L380.02 185.47 L380.14 185.80 L380.24 186.14 L380.34 186.48 L380.44 186.83 L380.53 187.17 L380.61 187.53 L380.69 187.88 L380.77 188.24 L380.83 188.60 L380.89 188.97 L380.95 189.33 L381.00 189.70 L381.04 190.08 L381.08 190.45 L381.11 190.83 L381.13 191.21 L381.15 191.60 L381.16 191.98 L381.16 192.37 L381.16 192.76 L381.15 193.15 L381.13 193.55 L381.11 193.94 L381.08 194.34 L381.04 194.74 L380.99 195.14 L380.94 195.54 L380.88 195.94 L380.81 196.35 L380.74 196.75 L380.66 197.16 L380.57 197.56 L380.47 197.97 L380.36 198.38 L380.25 198.79 L380.13 199.19 L380.00 199.60 L379.87 200.01 L379.72 200.42 L379.57 200.82 L379.41 201.23 L379.24 201.63 L379.07 202.04 L378.88 202.44 L378.69 202.84 L378.49 203.25 L378.28 203.65 L378.07 204.04 L377.84 204.44 L377.61 204.84 L377.37 205.23 L377.12 205.62 L376.87 206.01 L376.60 206.39 L376.33 206.78 L376.05 207.16 L375.76 207.53 L375.46 207.91 L375.16 208.28 L374.84 208.65 L374.52 209.01 L374.19 209.37 L373.85 209.73 L373.51 210.08 L373.15 210.43 L372.79 210.77 L372.42 211.11 L372.04 211.45 L371.66 211.77 L371.27 212.10 L370.87 212.42 L370.46 212.73 L370.04 213.04 L369.62 213.34 L369.19 213.64 L368.75 213.93 L368.30 214.22 L367.85 214.49 L367.39 214.77 L366.92 215.03 L366.44 215.29 L365.96 215.54 L365.47 215.78 L364.98 216.02 L364.47 216.25 L363.97 216.47 L363.45 216.69 L362.93 216.89 L362.40 217.09 L361.86 217.28 L361.32 217.46 L360.78 217.63 L360.22 217.80 L359.67 217.95 L359.10 218.10 L358.53 218.24 L357.96 218.36 L357.38 218.48 L356.79 218.59 L356.20 218.69 L355.61 218.78 L355.01 218.86 L354.40 218.93 L353.80 218.99 L353.18 219.03 L352.57 219.07 L351.95 219.10 L351.32 219.12 L350.69 219.12 L350.06 219.12 L349.43 219.10 L348.79 219.07 L348.15 219.04 L347.51 218.98 L346.86 218.92 L346.21 218.85 L345.56 218.76 L344.91 218.67 L344.26 218.56 L343.60 218.44 L342.95 218.30 L342.29 218.16 L341.63 218.00 L340.97 217.83 L340.31 217.65 L339.65 217.45 L339.00 217.25 L338.34 217.03 L337.68 216.79 L337.02 216.55 L336.36 216.29 L335.71 216.02 L335.05 215.73 L334.40 215.44 L333.75 215.13 L333.10 214.80 L332.45 214.47 L331.81 214.12 L331.16 213.75 L330.52 213.38 L329.89 212.99 L329.26 212.59 L328.63 212.17 L328.00 211.74 L327.38 211.30 L326.77 210.85 L326.16 210.38 L325.55 209.90 L324.95 209.40 L324.36 208.90 L323.77 208.38 L323.19 207.84 L322.61 207.30 L322.04 206.74 L321.48 206.16 L320.92 205.58 L320.37 204.98 L319.83 204.37 L319.30 203.75 L318.77 203.11 L318.26 202.46 L317.75 201.80 L317.25 201.13 L316.76 200.44 L316.28 199.74 L315.81 199.03 L315.35 198.31 L314.90 197.58 L314.46 196.83 L314.03 196.08 L313.61 195.31 L313.21 194.53 L312.81 193.74 L312.43 192.93 L312.06 192.12 L311.70 191.30 L311.35 190.46 L311.02 189.62 L310.70 188.76 L310.39 187.90 L310.10 187.02 L309.82 186.14 L309.55 185.24 L309.30 184.34 L309.07 183.43 L308.84 182.51 L308.64 181.58 L308.45 180.64 L308.27 179.69 L308.11 178.74 L307.96 177.77 L307.84 176.80 L307.72 175.83 L307.63 174.84 L307.55 173.85 L307.49 172.85 L307.44 171.85 L307.42 170.84 L307.41 169.82 L307.42 168.80 L307.44 167.77 L307.49 166.74 L307.55 165.71 L307.63 164.67 L307.73 163.62 L307.85 162.57 L307.99 161.52 L308.14 160.47 L308.32 159.41 L308.52 158.35 L308.73 157.29 L308.97 156.23 L309.22 155.16 L309.50 154.10 L309.79 153.03 L310.11 151.96 L310.44 150.89 L310.80 149.83 L311.18 148.76 L311.57 147.70 L311.99 146.63 L312.43 145.57 L312.89 144.51 L313.37 143.46 L313.87 142.40 L314.40 141.35 L314.94 140.30 L315.51 139.26 L316.09 138.22 L316.70 137.19 L317.33 136.16 L317.98 135.14 L318.65 134.12 L319.35 133.11 L320.06 132.11 L320.80 131.11 L321.56 130.12 L322.33 129.14 L323.13 128.17 L323.96 127.21 L324.80 126.26 L325.66 125.31 L326.54 124.38 L327.45 123.46 L328.38 122.55 L329.32 121.65 L330.29 120.76 L331.28 119.89 L332.29 119.02 L333.32 118.17 L334.37 117.34 L335.44 116.52 L336.53 115.71 L337.64 114.92 L338.76 114.14 L339.91 113.38 L341.08 112.63 L342.27 111.90 L343.47 111.19 L344.70 110.50 L345.94 109.82 L347.20 109.17 L348.48 108.53 L349.78 107.91 L351.10 107.31 L352.43 106.73 L353.78 106.17 L355.15 105.63 L356.53 105.11 L357.93 104.61 L359.35 104.14 L360.78 103.69 L362.22 103.26 L363.69 102.85 L365.16 102.47 L366.65 102.11 L368.16 101.77 L369.68 101.46 L371.21 101.18 L372.75 100.92 L374.31 100.69 L375.88 100.48 L377.46 100.30 L379.06 100.14 L380.66 100.02 L382.28 99.92 L383.90 99.84 L385.53 99.80 L387.18 99.79 L388.83 99.80 L390.49 99.84 L392.16 99.91 L393.84 100.01 L395.52 100.15 L397.21 100.31 L398.91 100.50 L400.61 100.72 L402.31 100.98 L404.02 101.26 L405.74 101.58 L407.46 101.93 L409.18 102.31 L410.90 102.72 L412.62 103.17 L414.35 103.64 L416.08 104.15 L417.80 104.70 L419.53 105.27 L421.25 105.88 L422.98 106.53 L424.70 107.20 L426.42 107.91 L428.13 108.66 L429.84 109.44 L431.55 110.25 L433.25 111.10 L434.94 111.98 L436.63 112.89 L438.31 113.84 L439.98 114.82 L441.64 115.84 L443.30 116.90 L444.94 117.98 L446.58 119.10 L448.20 120.26 L449.81 121.45 L451.41 122.68 L453.00 123.94 L454.57 125.23 L456.12 126.56 L457.67 127.92 L459.19 129.32 L460.70 130.75 L462.19 132.21 L463.67 133.71 L465.12 135.25 L466.56 136.81 L467.98 138.41 L469.37 140.04 L470.75 141.71 L472.10 143.41 L473.43 145.14 L474.74 146.90 L476.02 148.69 L477.27 150.52 L478.51 152.38 L479.71 154.27 L480.89 156.19 L482.04 158.14 L483.16 160.12 L484.26 162.14 L485.32 164.18 L486.36 166.25 L487.36 168.35 L488.33 170.48 L489.27 172.63 L490.18 174.82 L491.05 177.03 L491.89 179.27 L492.69 181.53 L493.46 183.82 L494.19 186.14 L494.88 188.48 L495.54 190.84 L496.16 193.23 L496.74 195.65 L497.28 198.08 L497.78 200.54 L498.24 203.02 L498.66 205.52 L499.04 208.04 L499.38 210.58 L499.67 213.14 L499.92 215.71 L500.13 218.31 L500.29 220.92 L500.40 223.55 L500.48 226.20 L500.50 228.86 L500.48 231.53 L500.41 234.22 L500.29 236.92 L500.13 239.63 L499.92 242.35 L499.65 245.09 L499.34 247.83 L498.98 250.58 L498.57 253.35 L498.11 256.11 L497.60 258.89 L497.03 261.67 L496.42 264.45 L495.75 267.24 L495.03 270.03 L494.26 272.82 L493.43 275.61 L492.55 278.41 L491.62 281.20 L490.63 283.99 L489.59 286.78 L488.50 289.56 L487.35 292.34 L486.14 295.12 L484.88 297.89 L483.57 300.64 L482.20 303.40 L480.78 306.14 L479.29 308.87 L477.76 311.59 L476.17 314.29 L474.52 316.98 L472.82 319.66 L471.06 322.32 L469.24 324.97 L467.37 327.59 L465.44 330.20 L463.46 332.79 L461.42 335.35 L459.33 337.89 L457.18 340.41 L454.97 342.91 L452.71 345.38 L450.40 347.82 L448.03 350.24 L445.60 352.62 L443.12 354.98 L440.59 357.30 L438.00 359.59 L435.36 361.85 L432.67 364.07 L429.92 366.26 L427.12 368.41 L424.27 370.53 L421.36 372.60 L418.41 374.64 L415.40 376.63 L412.34 378.58 L409.23 380.49 L406.08 382.35 L402.87 384.16 L399.61 385.93 L396.31 387.66 L392.96 389.33 L389.56 390.95 L386.12 392.52 L382.63 394.04 L379.09 395.51 L375.52 396.92 L371.90 398.28 L368.23 399.58 L364.52 400.82 L360.78 402.00 L356.99 403.13 L353.16 404.19 L349.30 405.19 L345.39 406.13 L341.45 407.01 L337.48 407.82 L333.47 408.57 L329.42 409.25 L325.34 409.86 L321.23 410.40 L317.09 410.87 L312.92 411.28 L308.72 411.61 L304.50 411.87 L300.24 412.06 L295.96 412.17 L291.66 412.21 L287.33 412.18 L282.98 412.07 L278.61 411.88 L274.23 411.61 L269.82 411.27 L265.39 410.85 L260.96 410.34 L256.50 409.76 L252.03 409.09 L247.56 408.35 L243.07 407.52 L238.57 406.61 L234.07 405.61 L229.56 404.53 L225.04 403.36 L220.52 402.11 L216.00 400.78 L211.48 399.35 L206.96 397.85 L202.45 396.25 L197.94 394.57 L193.43 392.79 L188.93 390.93 L184.45 388.99 L179.97 386.95 L175.50 384.82 L171.05 382.61 L166.62 380.30 L162.20 377.90 L157.80 375.42 L153.42 372.84 L149.07 370.18 L144.73 367.42 L140.43 364.57 L136.15 361.64 L131.90 358.61 L127.68 355.49 L123.50 352.28 L119.35 348.99 L115.23 345.60 L111.15 342.12 L107.12 338.55 L103.12 334.90 L99.17 331.15 L95.26 327.31 L91.40 323.39 L87.59 319.38 L83.83 315.28 L80.12 311.09 L76.47 306.82 L72.87 302.46 L69.33 298.01 L65.85 293.48 L62.43 288.87 L59.07 284.17 L55.78 279.38 L52.56 274.52 L49.40 269.57 L46.32 264.54 L43.30 259.43 L40.36 254.24 L37.50 248.98 L34.71 243.63 L32.01 238.21 L29.38 232.71 L26.84 227.14 L24.38 221.50 L22.01 215.78 L19.72 209.99 L17.53 204.13 L15.43 198.20 L13.42 192.20 L11.50 186.14" fill="none" stroke="#E8E1D6" stroke-width="15" stroke-linecap="round"/>
</svg>